**********************
PowerShell transcript start
Start time: 20200807154937
**********************
Transcript started, output file is ./logs/hevcnvenc_refs.log
DEBUG Invoke-Process
File: ffmpeg
Arg: -y -nostats -analyzeduration 30M -probesize 100M -fflags +discardcorrupt -i input.mp4 -an -c:v hevc_nvenc -preset:v slow -profile:v main10 -rc:v constqp -rc-lookahead 32 -b_ref_mode 2 -init_qpI 22 -init_qpP 24 -init_qpB 25 -g 60 -bf 3 -pix_fmt yuv420p10le -color_range tv -color_primaries bt709 -color_trc bt709 -colorspace bt709 -movflags +faststart output.mp4
ArgList:

ffmpeg version 4.3.1 Copyright (c) 2000-2020 the FFmpeg developers
  libswscale      5.  7.100 /  5.  7.100
  libpostproc    55.  7.100 / 55.  7.100
  libavformat    58. 45.100 / 58. 45.100
  libavfilter     7. 85.100 /  7. 85.100
  libavcodec     58. 91.100 / 58. 91.100
  libavdevice    58. 10.100 / 58. 10.100
  libavutil      56. 51.100 / 56. 51.100
  libswresample   3.  7.100 /  3.  7.100
  built with gcc 10.2.1 (GCC) 20200726
  configuration: --disable-static --enable-shared --enable-gpl --enable-version3 --enable-sdl2 --enable-fontconfig --enable-gnutls --enable-iconv --enable-libass --enable-libdav1d --enable-libbluray --enable-libfreetype --enable-libmp3lame --enable-libopencore-amrnb --enable-libopencore-amrwb --enable-libopenjpeg --enable-libopus --enable-libshine --enable-libsnappy --enable-libsoxr --enable-libsrt --enable-libtheora --enable-libtwolame --enable-libvpx --enable-libwavpack --enable-libwebp --enable-libx264 --enable-libx265 --enable-libxml2 --enable-libzimg --enable-lzma --enable-zlib --enable-gmp --enable-libvidstab --enable-libvmaf --enable-libvorbis --enable-libvo-amrwbenc --enable-libmysofa --enable-libspeex --enable-libxvid --enable-libaom --enable-libgsm --enable-librav1e --disable-w32threads --enable-libmfx --enable-ffnvcodec --enable-cuda-llvm --enable-cuvid --enable-d3d11va --enable-nvenc --enable-nvdec --enable-dxva2 --enable-avisynth --enable-libopenmpt --enable-amf
Input #0, mov,mp4,m4a,3gp,3g2,mj2, from 'input.mp4':
  Metadata:
    major_brand     : isom
    encoder         : Lavf58.45.100
    compatible_brands: isomiso2mp41
  Duration: 00:01:30.02, start: 0.000000, bitrate: 181885 kb/s
    Stream #0:0(und): Video: hevc (Main) (hev1 / 0x31766568), yuv420p(tv, bt709, progressive), 1920x1080 [SAR 1:1 DAR 16:9], 181884 kb/s, 29.97 fps, 29.97 tbr, 30k tbn, 29.97 tbc (default)
    Metadata:
      handler_name    : VideoHandler
    minor_version   : 512
Stream mapping:
  Stream #0:0 -> #0:0 (hevc (native) -> hevc (hevc_nvenc))
Press [q] to stop, [?] for help
Incompatible pixel format 'yuv420p10le' for codec 'hevc_nvenc', auto-selecting format 'p010le'
Output #0, mp4, to 'output.mp4':
    major_brand     : isom
  Metadata:
    minor_version   : 512
    encoder         : Lavf58.45.100
    compatible_brands: isomiso2mp41
    Stream #0:0(und): Video: hevc (hevc_nvenc) (Main 10) (hev1 / 0x31766568), p010le(tv, bt709), 1920x1080 [SAR 1:1 DAR 16:9], q=-1--1, 2000 kb/s, 29.97 fps, 30k tbn, 29.97 tbc (default)
    Metadata:
      handler_name    : VideoHandler
      encoder         : Lavc58.91.100 hevc_nvenc
    Side data:
      cpb: bitrate max/min/avg: 0/0/2000000 buffer size: 4000000 vbv_delay: N/A
[mp4 @ 00000226ded0b540] Starting second pass: moving the moov atom to the beginning of the file
frame= 2698 fps= 74 q=23.0 Lsize=   58551kB time=00:01:29.88 bitrate=5336.0kbits/s speed=2.45x    
video:58518kB audio:0kB subtitle:0kB other streams:0kB global headers:0kB muxing overhead: 0.057312%
DEBUG ExitCode: 0
DEBUG Invoke-Process
File: ffmpeg
Arg: -y -i output.mp4 -i input.mp4 -filter_complex libvmaf=vmaf_v0.6.1.pkl -an -f null -
ArgList:

built with gcc 10.2.1 (GCC) 20200726
ffmpeg version 4.3.1 Copyright (c) 2000-2020 the FFmpeg developers
  configuration: --disable-static --enable-shared --enable-gpl --enable-version3 --enable-sdl2 --enable-fontconfig --enable-gnutls --enable-iconv --enable-libass --enable-libdav1d --enable-libbluray --enable-libfreetype --enable-libmp3lame --enable-libopencore-amrnb --enable-libopencore-amrwb --enable-libopenjpeg --enable-libopus --enable-libshine --enable-libsnappy --enable-libsoxr --enable-libsrt --enable-libtheora --enable-libtwolame --enable-libvpx --enable-libwavpack --enable-libwebp --enable-libx264 --enable-libx265 --enable-libxml2 --enable-libzimg --enable-lzma --enable-zlib --enable-gmp --enable-libvidstab --enable-libvmaf --enable-libvorbis --enable-libvo-amrwbenc --enable-libmysofa --enable-libspeex --enable-libxvid --enable-libaom --enable-libgsm --enable-librav1e --disable-w32threads --enable-libmfx --enable-ffnvcodec --enable-cuda-llvm --enable-cuvid --enable-d3d11va --enable-nvenc --enable-nvdec --enable-dxva2 --enable-avisynth --enable-libopenmpt --enable-amf
  libavutil      56. 51.100 / 56. 51.100
  libavdevice    58. 10.100 / 58. 10.100
  libswscale      5.  7.100 /  5.  7.100
  libavformat    58. 45.100 / 58. 45.100
  libavfilter     7. 85.100 /  7. 85.100
  libswresample   3.  7.100 /  3.  7.100
  libpostproc    55.  7.100 / 55.  7.100
  libavcodec     58. 91.100 / 58. 91.100
Input #0, mov,mp4,m4a,3gp,3g2,mj2, from 'output.mp4':
  Metadata:
    minor_version   : 512
    encoder         : Lavf58.45.100
    major_brand     : isom
    compatible_brands: isomiso2mp41
  Duration: 00:01:30.02, start: 0.000000, bitrate: 5328 kb/s
    Metadata:
    Stream #0:0(und): Video: hevc (Main 10) (hev1 / 0x31766568), yuv420p10le(tv, bt709, progressive), 1920x1080 [SAR 1:1 DAR 16:9], 5325 kb/s, 29.97 fps, 29.97 tbr, 30k tbn, 29.97 tbc (default)
      handler_name    : VideoHandler
Input #1, mov,mp4,m4a,3gp,3g2,mj2, from 'input.mp4':
    major_brand     : isom
    compatible_brands: isomiso2mp41
    encoder         : Lavf58.45.100
  Metadata:
  Duration: 00:01:30.02, start: 0.000000, bitrate: 181885 kb/s
    Stream #1:0(und): Video: hevc (Main) (hev1 / 0x31766568), yuv420p(tv, bt709, progressive), 1920x1080 [SAR 1:1 DAR 16:9], 181884 kb/s, 29.97 fps, 29.97 tbr, 30k tbn, 29.97 tbc (default)
      handler_name    : VideoHandler
    Metadata:
    minor_version   : 512
Stream mapping:
  Stream #0:0 (hevc) -> libvmaf:main
  Stream #1:0 (hevc) -> libvmaf:reference
Press [q] to stop, [?] for help
  libvmaf -> Stream #0:0 (wrapped_avframe)
  Metadata:
    compatible_brands: isomiso2mp41
    encoder         : Lavf58.45.100
    Stream #0:0: Video: wrapped_avframe, yuv420p10le, 1920x1080 [SAR 1:1 DAR 16:9], q=2-31, 200 kb/s, 29.97 fps, 29.97 tbn, 29.97 tbc (default)
    minor_version   : 512
    Metadata:
      encoder         : Lavc58.91.100 wrapped_avframe
    major_brand     : isom
Output #0, null, to 'pipe:':
frame=   15 fps=0.0 q=-0.0 size=N/A time=00:00:00.50 bitrate=N/A speed=0.98x    
frame=   30 fps= 28 q=-0.0 size=N/A time=00:00:01.00 bitrate=N/A speed=0.924x    
frame=   43 fps= 27 q=-0.0 size=N/A time=00:00:01.43 bitrate=N/A speed=0.903x    
frame=   56 fps= 27 q=-0.0 size=N/A time=00:00:01.86 bitrate=N/A speed=0.889x    
frame=   70 fps= 27 q=-0.0 size=N/A time=00:00:02.33 bitrate=N/A speed=0.896x    
frame=   84 fps= 27 q=-0.0 size=N/A time=00:00:02.80 bitrate=N/A speed=0.902x    
frame=   98 fps= 27 q=-0.0 size=N/A time=00:00:03.26 bitrate=N/A speed=0.901x    
frame=  111 fps= 27 q=-0.0 size=N/A time=00:00:03.70 bitrate=N/A speed=0.893x    
frame=  124 fps= 26 q=-0.0 size=N/A time=00:00:04.13 bitrate=N/A speed=0.88x    
frame=  139 fps= 27 q=-0.0 size=N/A time=00:00:04.63 bitrate=N/A speed=0.892x    
frame=  152 fps= 27 q=-0.0 size=N/A time=00:00:05.07 bitrate=N/A speed=0.889x    
frame=  167 fps= 27 q=-0.0 size=N/A time=00:00:05.57 bitrate=N/A speed=0.885x    
frame=  181 fps= 27 q=-0.0 size=N/A time=00:00:06.03 bitrate=N/A speed=0.888x    
frame=  196 fps= 27 q=-0.0 size=N/A time=00:00:06.53 bitrate=N/A speed=0.892x    
frame=  209 fps= 27 q=-0.0 size=N/A time=00:00:06.97 bitrate=N/A speed=0.886x    
frame=  221 fps= 26 q=-0.0 size=N/A time=00:00:07.37 bitrate=N/A speed=0.879x    
frame=  236 fps= 27 q=-0.0 size=N/A time=00:00:07.87 bitrate=N/A speed=0.885x    
frame=  249 fps= 26 q=-0.0 size=N/A time=00:00:08.30 bitrate=N/A speed=0.882x    
frame=  262 fps= 26 q=-0.0 size=N/A time=00:00:08.74 bitrate=N/A speed=0.877x    
frame=  275 fps= 26 q=-0.0 size=N/A time=00:00:09.17 bitrate=N/A speed=0.876x    
frame=  289 fps= 26 q=-0.0 size=N/A time=00:00:09.64 bitrate=N/A speed=0.878x    
frame=  302 fps= 26 q=-0.0 size=N/A time=00:00:10.07 bitrate=N/A speed=0.877x    
frame=  315 fps= 26 q=-0.0 size=N/A time=00:00:10.51 bitrate=N/A speed=0.875x    
frame=  329 fps= 26 q=-0.0 size=N/A time=00:00:10.97 bitrate=N/A speed=0.877x    
frame=  341 fps= 26 q=-0.0 size=N/A time=00:00:11.37 bitrate=N/A speed=0.873x    
frame=  354 fps= 26 q=-0.0 size=N/A time=00:00:11.81 bitrate=N/A speed=0.872x    
frame=  368 fps= 26 q=-0.0 size=N/A time=00:00:12.27 bitrate=N/A speed=0.869x    
frame=  381 fps= 26 q=-0.0 size=N/A time=00:00:12.71 bitrate=N/A speed=0.869x    
frame=  395 fps= 26 q=-0.0 size=N/A time=00:00:13.17 bitrate=N/A speed=0.87x    
frame=  409 fps= 26 q=-0.0 size=N/A time=00:00:13.64 bitrate=N/A speed=0.871x    
frame=  423 fps= 26 q=-0.0 size=N/A time=00:00:14.11 bitrate=N/A speed=0.873x    
frame=  435 fps= 26 q=-0.0 size=N/A time=00:00:14.51 bitrate=N/A speed=0.869x    
frame=  449 fps= 26 q=-0.0 size=N/A time=00:00:14.98 bitrate=N/A speed=0.87x    
frame=  463 fps= 26 q=-0.0 size=N/A time=00:00:15.44 bitrate=N/A speed=0.87x    
frame=  478 fps= 26 q=-0.0 size=N/A time=00:00:15.94 bitrate=N/A speed=0.873x    
frame=  490 fps= 26 q=-0.0 size=N/A time=00:00:16.34 bitrate=N/A speed=0.871x    
frame=  503 fps= 26 q=-0.0 size=N/A time=00:00:16.78 bitrate=N/A speed=0.87x    
frame=  518 fps= 26 q=-0.0 size=N/A time=00:00:17.28 bitrate=N/A speed=0.871x    
frame=  532 fps= 26 q=-0.0 size=N/A time=00:00:17.75 bitrate=N/A speed=0.872x    
frame=  545 fps= 26 q=-0.0 size=N/A time=00:00:18.18 bitrate=N/A speed=0.871x    
frame=  557 fps= 26 q=-0.0 size=N/A time=00:00:18.58 bitrate=N/A speed=0.869x    
frame=  572 fps= 26 q=-0.0 size=N/A time=00:00:19.08 bitrate=N/A speed=0.872x    
frame=  586 fps= 26 q=-0.0 size=N/A time=00:00:19.55 bitrate=N/A speed=0.872x    
frame=  600 fps= 26 q=-0.0 size=N/A time=00:00:20.02 bitrate=N/A speed=0.872x    
frame=  614 fps= 26 q=-0.0 size=N/A time=00:00:20.48 bitrate=N/A speed=0.872x    
frame=  628 fps= 26 q=-0.0 size=N/A time=00:00:20.95 bitrate=N/A speed=0.873x    
frame=  641 fps= 26 q=-0.0 size=N/A time=00:00:21.38 bitrate=N/A speed=0.872x    
frame=  655 fps= 26 q=-0.0 size=N/A time=00:00:21.85 bitrate=N/A speed=0.873x    
frame=  668 fps= 26 q=-0.0 size=N/A time=00:00:22.28 bitrate=N/A speed=0.872x    
frame=  683 fps= 26 q=-0.0 size=N/A time=00:00:22.78 bitrate=N/A speed=0.874x    
frame=  696 fps= 26 q=-0.0 size=N/A time=00:00:23.22 bitrate=N/A speed=0.871x    
frame=  710 fps= 26 q=-0.0 size=N/A time=00:00:23.69 bitrate=N/A speed=0.871x    
frame=  722 fps= 26 q=-0.0 size=N/A time=00:00:24.09 bitrate=N/A speed=0.87x    
frame=  737 fps= 26 q=-0.0 size=N/A time=00:00:24.59 bitrate=N/A speed=0.872x    
frame=  750 fps= 26 q=-0.0 size=N/A time=00:00:25.02 bitrate=N/A speed=0.872x    
frame=  764 fps= 26 q=-0.0 size=N/A time=00:00:25.49 bitrate=N/A speed=0.872x    
frame=  778 fps= 26 q=-0.0 size=N/A time=00:00:25.95 bitrate=N/A speed=0.873x    
frame=  793 fps= 26 q=-0.0 size=N/A time=00:00:26.45 bitrate=N/A speed=0.875x    
frame=  807 fps= 26 q=-0.0 size=N/A time=00:00:26.92 bitrate=N/A speed=0.875x    
frame=  819 fps= 26 q=-0.0 size=N/A time=00:00:27.32 bitrate=N/A speed=0.873x    
frame=  833 fps= 26 q=-0.0 size=N/A time=00:00:27.79 bitrate=N/A speed=0.873x    
frame=  847 fps= 26 q=-0.0 size=N/A time=00:00:28.26 bitrate=N/A speed=0.873x    
frame=  862 fps= 26 q=-0.0 size=N/A time=00:00:28.76 bitrate=N/A speed=0.875x    
frame=  876 fps= 26 q=-0.0 size=N/A time=00:00:29.22 bitrate=N/A speed=0.875x    
frame=  890 fps= 26 q=-0.0 size=N/A time=00:00:29.69 bitrate=N/A speed=0.876x    
frame=  903 fps= 26 q=-0.0 size=N/A time=00:00:30.13 bitrate=N/A speed=0.876x    
frame=  916 fps= 26 q=-0.0 size=N/A time=00:00:30.56 bitrate=N/A speed=0.876x    
frame=  928 fps= 26 q=-0.0 size=N/A time=00:00:30.96 bitrate=N/A speed=0.875x    
frame=  942 fps= 26 q=-0.0 size=N/A time=00:00:31.43 bitrate=N/A speed=0.875x    
frame=  955 fps= 26 q=-0.0 size=N/A time=00:00:31.86 bitrate=N/A speed=0.875x    
frame=  969 fps= 26 q=-0.0 size=N/A time=00:00:32.33 bitrate=N/A speed=0.875x    
frame=  982 fps= 26 q=-0.0 size=N/A time=00:00:32.76 bitrate=N/A speed=0.875x    
frame=  997 fps= 26 q=-0.0 size=N/A time=00:00:33.26 bitrate=N/A speed=0.874x    
frame= 1012 fps= 26 q=-0.0 size=N/A time=00:00:33.76 bitrate=N/A speed=0.875x    
frame= 1027 fps= 26 q=-0.0 size=N/A time=00:00:34.26 bitrate=N/A speed=0.876x    
frame= 1040 fps= 26 q=-0.0 size=N/A time=00:00:34.70 bitrate=N/A speed=0.876x    
frame= 1052 fps= 26 q=-0.0 size=N/A time=00:00:35.10 bitrate=N/A speed=0.875x    
frame= 1065 fps= 26 q=-0.0 size=N/A time=00:00:35.53 bitrate=N/A speed=0.875x    
frame= 1079 fps= 26 q=-0.0 size=N/A time=00:00:36.00 bitrate=N/A speed=0.875x    
frame= 1093 fps= 26 q=-0.0 size=N/A time=00:00:36.46 bitrate=N/A speed=0.875x    
frame= 1107 fps= 26 q=-0.0 size=N/A time=00:00:36.93 bitrate=N/A speed=0.875x    
frame= 1122 fps= 26 q=-0.0 size=N/A time=00:00:37.43 bitrate=N/A speed=0.876x    
frame= 1136 fps= 26 q=-0.0 size=N/A time=00:00:37.90 bitrate=N/A speed=0.876x    
frame= 1149 fps= 26 q=-0.0 size=N/A time=00:00:38.33 bitrate=N/A speed=0.875x    
frame= 1163 fps= 26 q=-0.0 size=N/A time=00:00:38.80 bitrate=N/A speed=0.876x    
frame= 1177 fps= 26 q=-0.0 size=N/A time=00:00:39.27 bitrate=N/A speed=0.876x    
frame= 1191 fps= 26 q=-0.0 size=N/A time=00:00:39.73 bitrate=N/A speed=0.877x    
frame= 1204 fps= 26 q=-0.0 size=N/A time=00:00:40.17 bitrate=N/A speed=0.876x    
frame= 1218 fps= 26 q=-0.0 size=N/A time=00:00:40.64 bitrate=N/A speed=0.877x    
frame= 1231 fps= 26 q=-0.0 size=N/A time=00:00:41.07 bitrate=N/A speed=0.876x    
frame= 1245 fps= 26 q=-0.0 size=N/A time=00:00:41.54 bitrate=N/A speed=0.876x    
frame= 1258 fps= 26 q=-0.0 size=N/A time=00:00:41.97 bitrate=N/A speed=0.876x    
frame= 1272 fps= 26 q=-0.0 size=N/A time=00:00:42.44 bitrate=N/A speed=0.876x    
frame= 1286 fps= 26 q=-0.0 size=N/A time=00:00:42.90 bitrate=N/A speed=0.876x    
frame= 1299 fps= 26 q=-0.0 size=N/A time=00:00:43.34 bitrate=N/A speed=0.875x    
frame= 1313 fps= 26 q=-0.0 size=N/A time=00:00:43.81 bitrate=N/A speed=0.876x    
frame= 1325 fps= 26 q=-0.0 size=N/A time=00:00:44.21 bitrate=N/A speed=0.875x    
frame= 1337 fps= 26 q=-0.0 size=N/A time=00:00:44.61 bitrate=N/A speed=0.874x    
frame= 1350 fps= 26 q=-0.0 size=N/A time=00:00:45.04 bitrate=N/A speed=0.874x    
frame= 1364 fps= 26 q=-0.0 size=N/A time=00:00:45.51 bitrate=N/A speed=0.875x    
frame= 1378 fps= 26 q=-0.0 size=N/A time=00:00:45.97 bitrate=N/A speed=0.875x    
frame= 1391 fps= 26 q=-0.0 size=N/A time=00:00:46.41 bitrate=N/A speed=0.875x    
frame= 1405 fps= 26 q=-0.0 size=N/A time=00:00:46.88 bitrate=N/A speed=0.875x    
frame= 1418 fps= 26 q=-0.0 size=N/A time=00:00:47.31 bitrate=N/A speed=0.874x    
frame= 1431 fps= 26 q=-0.0 size=N/A time=00:00:47.74 bitrate=N/A speed=0.874x    
frame= 1447 fps= 26 q=-0.0 size=N/A time=00:00:48.28 bitrate=N/A speed=0.875x    
frame= 1460 fps= 26 q=-0.0 size=N/A time=00:00:48.71 bitrate=N/A speed=0.875x    
frame= 1474 fps= 26 q=-0.0 size=N/A time=00:00:49.18 bitrate=N/A speed=0.875x    
frame= 1488 fps= 26 q=-0.0 size=N/A time=00:00:49.64 bitrate=N/A speed=0.875x    
frame= 1502 fps= 26 q=-0.0 size=N/A time=00:00:50.11 bitrate=N/A speed=0.876x    
frame= 1515 fps= 26 q=-0.0 size=N/A time=00:00:50.55 bitrate=N/A speed=0.875x    
frame= 1529 fps= 26 q=-0.0 size=N/A time=00:00:51.01 bitrate=N/A speed=0.875x    
frame= 1542 fps= 26 q=-0.0 size=N/A time=00:00:51.45 bitrate=N/A speed=0.874x    
frame= 1557 fps= 26 q=-0.0 size=N/A time=00:00:51.95 bitrate=N/A speed=0.875x    
frame= 1570 fps= 26 q=-0.0 size=N/A time=00:00:52.38 bitrate=N/A speed=0.875x    
frame= 1584 fps= 26 q=-0.0 size=N/A time=00:00:52.85 bitrate=N/A speed=0.874x    
frame= 1597 fps= 26 q=-0.0 size=N/A time=00:00:53.28 bitrate=N/A speed=0.874x    
frame= 1612 fps= 26 q=-0.0 size=N/A time=00:00:53.78 bitrate=N/A speed=0.874x    
frame= 1625 fps= 26 q=-0.0 size=N/A time=00:00:54.22 bitrate=N/A speed=0.874x    
frame= 1639 fps= 26 q=-0.0 size=N/A time=00:00:54.68 bitrate=N/A speed=0.874x    
frame= 1651 fps= 26 q=-0.0 size=N/A time=00:00:55.08 bitrate=N/A speed=0.873x    
frame= 1666 fps= 26 q=-0.0 size=N/A time=00:00:55.58 bitrate=N/A speed=0.874x    
frame= 1679 fps= 26 q=-0.0 size=N/A time=00:00:56.02 bitrate=N/A speed=0.873x    
frame= 1692 fps= 26 q=-0.0 size=N/A time=00:00:56.45 bitrate=N/A speed=0.873x    
frame= 1704 fps= 26 q=-0.0 size=N/A time=00:00:56.85 bitrate=N/A speed=0.872x    
frame= 1718 fps= 26 q=-0.0 size=N/A time=00:00:57.32 bitrate=N/A speed=0.872x    
frame= 1732 fps= 26 q=-0.0 size=N/A time=00:00:57.79 bitrate=N/A speed=0.873x    
frame= 1746 fps= 26 q=-0.0 size=N/A time=00:00:58.25 bitrate=N/A speed=0.873x    
frame= 1759 fps= 26 q=-0.0 size=N/A time=00:00:58.69 bitrate=N/A speed=0.872x    
frame= 1773 fps= 26 q=-0.0 size=N/A time=00:00:59.15 bitrate=N/A speed=0.872x    
frame= 1787 fps= 26 q=-0.0 size=N/A time=00:00:59.62 bitrate=N/A speed=0.872x    
frame= 1801 fps= 26 q=-0.0 size=N/A time=00:01:00.09 bitrate=N/A speed=0.873x    
frame= 1815 fps= 26 q=-0.0 size=N/A time=00:01:00.56 bitrate=N/A speed=0.873x    
frame= 1828 fps= 26 q=-0.0 size=N/A time=00:01:00.99 bitrate=N/A speed=0.873x    
frame= 1841 fps= 26 q=-0.0 size=N/A time=00:01:01.42 bitrate=N/A speed=0.873x    
frame= 1853 fps= 26 q=-0.0 size=N/A time=00:01:01.82 bitrate=N/A speed=0.872x    
frame= 1866 fps= 26 q=-0.0 size=N/A time=00:01:02.26 bitrate=N/A speed=0.872x    
frame= 1880 fps= 26 q=-0.0 size=N/A time=00:01:02.72 bitrate=N/A speed=0.872x    
frame= 1892 fps= 26 q=-0.0 size=N/A time=00:01:03.12 bitrate=N/A speed=0.872x    
frame= 1906 fps= 26 q=-0.0 size=N/A time=00:01:03.59 bitrate=N/A speed=0.872x    
frame= 1920 fps= 26 q=-0.0 size=N/A time=00:01:04.06 bitrate=N/A speed=0.872x    
frame= 1933 fps= 26 q=-0.0 size=N/A time=00:01:04.49 bitrate=N/A speed=0.872x    
frame= 1945 fps= 26 q=-0.0 size=N/A time=00:01:04.89 bitrate=N/A speed=0.871x    
frame= 1960 fps= 26 q=-0.0 size=N/A time=00:01:05.39 bitrate=N/A speed=0.872x    
frame= 1974 fps= 26 q=-0.0 size=N/A time=00:01:05.86 bitrate=N/A speed=0.872x    
frame= 1986 fps= 26 q=-0.0 size=N/A time=00:01:06.26 bitrate=N/A speed=0.872x    
frame= 1999 fps= 26 q=-0.0 size=N/A time=00:01:06.69 bitrate=N/A speed=0.872x    
frame= 2013 fps= 26 q=-0.0 size=N/A time=00:01:07.16 bitrate=N/A speed=0.872x    
frame= 2027 fps= 26 q=-0.0 size=N/A time=00:01:07.63 bitrate=N/A speed=0.872x    
frame= 2040 fps= 26 q=-0.0 size=N/A time=00:01:08.06 bitrate=N/A speed=0.871x    
frame= 2054 fps= 26 q=-0.0 size=N/A time=00:01:08.53 bitrate=N/A speed=0.871x    
frame= 2067 fps= 26 q=-0.0 size=N/A time=00:01:08.96 bitrate=N/A speed=0.871x    
frame= 2081 fps= 26 q=-0.0 size=N/A time=00:01:09.43 bitrate=N/A speed=0.871x    
frame= 2096 fps= 26 q=-0.0 size=N/A time=00:01:09.93 bitrate=N/A speed=0.872x    
frame= 2109 fps= 26 q=-0.0 size=N/A time=00:01:10.37 bitrate=N/A speed=0.871x    
frame= 2122 fps= 26 q=-0.0 size=N/A time=00:01:10.80 bitrate=N/A speed=0.871x    
frame= 2137 fps= 26 q=-0.0 size=N/A time=00:01:11.30 bitrate=N/A speed=0.872x    
frame= 2150 fps= 26 q=-0.0 size=N/A time=00:01:11.73 bitrate=N/A speed=0.872x    
frame= 2164 fps= 26 q=-0.0 size=N/A time=00:01:12.20 bitrate=N/A speed=0.872x    
frame= 2178 fps= 26 q=-0.0 size=N/A time=00:01:12.67 bitrate=N/A speed=0.872x    
frame= 2190 fps= 26 q=-0.0 size=N/A time=00:01:13.07 bitrate=N/A speed=0.871x    
frame= 2204 fps= 26 q=-0.0 size=N/A time=00:01:13.54 bitrate=N/A speed=0.872x    
frame= 2218 fps= 26 q=-0.0 size=N/A time=00:01:14.00 bitrate=N/A speed=0.872x    
frame= 2231 fps= 26 q=-0.0 size=N/A time=00:01:14.44 bitrate=N/A speed=0.872x    
frame= 2245 fps= 26 q=-0.0 size=N/A time=00:01:14.90 bitrate=N/A speed=0.872x    
frame= 2257 fps= 26 q=-0.0 size=N/A time=00:01:15.30 bitrate=N/A speed=0.871x    
frame= 2273 fps= 26 q=-0.0 size=N/A time=00:01:15.84 bitrate=N/A speed=0.872x    
frame= 2286 fps= 26 q=-0.0 size=N/A time=00:01:16.27 bitrate=N/A speed=0.872x    
frame= 2299 fps= 26 q=-0.0 size=N/A time=00:01:16.70 bitrate=N/A speed=0.872x    
frame= 2313 fps= 26 q=-0.0 size=N/A time=00:01:17.17 bitrate=N/A speed=0.872x    
frame= 2326 fps= 26 q=-0.0 size=N/A time=00:01:17.61 bitrate=N/A speed=0.872x    
frame= 2339 fps= 26 q=-0.0 size=N/A time=00:01:18.04 bitrate=N/A speed=0.872x    
frame= 2353 fps= 26 q=-0.0 size=N/A time=00:01:18.51 bitrate=N/A speed=0.872x    
frame= 2367 fps= 26 q=-0.0 size=N/A time=00:01:18.97 bitrate=N/A speed=0.872x    
frame= 2380 fps= 26 q=-0.0 size=N/A time=00:01:19.41 bitrate=N/A speed=0.872x    
frame= 2393 fps= 26 q=-0.0 size=N/A time=00:01:19.84 bitrate=N/A speed=0.871x    
frame= 2407 fps= 26 q=-0.0 size=N/A time=00:01:20.31 bitrate=N/A speed=0.871x    
frame= 2420 fps= 26 q=-0.0 size=N/A time=00:01:20.74 bitrate=N/A speed=0.871x    
frame= 2434 fps= 26 q=-0.0 size=N/A time=00:01:21.21 bitrate=N/A speed=0.871x    
frame= 2448 fps= 26 q=-0.0 size=N/A time=00:01:21.68 bitrate=N/A speed=0.871x    
frame= 2462 fps= 26 q=-0.0 size=N/A time=00:01:22.14 bitrate=N/A speed=0.871x    
frame= 2475 fps= 26 q=-0.0 size=N/A time=00:01:22.58 bitrate=N/A speed=0.871x    
frame= 2488 fps= 26 q=-0.0 size=N/A time=00:01:23.01 bitrate=N/A speed=0.871x    
frame= 2503 fps= 26 q=-0.0 size=N/A time=00:01:23.51 bitrate=N/A speed=0.871x    
frame= 2517 fps= 26 q=-0.0 size=N/A time=00:01:23.98 bitrate=N/A speed=0.872x    
frame= 2532 fps= 26 q=-0.0 size=N/A time=00:01:24.48 bitrate=N/A speed=0.872x    
frame= 2545 fps= 26 q=-0.0 size=N/A time=00:01:24.91 bitrate=N/A speed=0.871x    
frame= 2558 fps= 26 q=-0.0 size=N/A time=00:01:25.35 bitrate=N/A speed=0.871x    
frame= 2572 fps= 26 q=-0.0 size=N/A time=00:01:25.81 bitrate=N/A speed=0.871x    
frame= 2585 fps= 26 q=-0.0 size=N/A time=00:01:26.25 bitrate=N/A speed=0.871x    
frame= 2600 fps= 26 q=-0.0 size=N/A time=00:01:26.75 bitrate=N/A speed=0.871x    
frame= 2614 fps= 26 q=-0.0 size=N/A time=00:01:27.22 bitrate=N/A speed=0.871x    
frame= 2628 fps= 26 q=-0.0 size=N/A time=00:01:27.68 bitrate=N/A speed=0.872x    
frame= 2643 fps= 26 q=-0.0 size=N/A time=00:01:28.18 bitrate=N/A speed=0.872x    
frame= 2657 fps= 26 q=-0.0 size=N/A time=00:01:28.65 bitrate=N/A speed=0.872x    
frame= 2670 fps= 26 q=-0.0 size=N/A time=00:01:29.08 bitrate=N/A speed=0.872x    
frame= 2683 fps= 26 q=-0.0 size=N/A time=00:01:29.52 bitrate=N/A speed=0.872x    
frame= 2698 fps= 26 q=-0.0 size=N/A time=00:01:30.02 bitrate=N/A speed=0.872x    
frame= 2698 fps= 26 q=-0.0 Lsize=N/A time=00:01:30.02 bitrate=N/A speed=0.872x    
video:1412kB audio:0kB subtitle:0kB other streams:0kB global headers:0kB muxing overhead: unknown
[libvmaf @ 000001a21c45bd80] VMAF score: 96.248698
DEBUG ExitCode: 0
DEBUG Invoke-Process
File: ffmpeg
Arg: -y -nostats -analyzeduration 30M -probesize 100M -fflags +discardcorrupt -i input.mp4 -an -c:v hevc_nvenc -preset:v slow -profile:v main10 -rc:v constqp -rc-lookahead 32 -b_ref_mode 2 -init_qpI 22 -init_qpP 24 -init_qpB 25 -g 60 -bf 3 -refs 4 -pix_fmt yuv420p10le -color_range tv -color_primaries bt709 -color_trc bt709 -colorspace bt709 -movflags +faststart output.mp4
ArgList:

ffmpeg version 4.3.1 Copyright (c) 2000-2020 the FFmpeg developers
  built with gcc 10.2.1 (GCC) 20200726
  libavcodec     58. 91.100 / 58. 91.100
  libavformat    58. 45.100 / 58. 45.100
  libavdevice    58. 10.100 / 58. 10.100
  libavfilter     7. 85.100 /  7. 85.100
  configuration: --disable-static --enable-shared --enable-gpl --enable-version3 --enable-sdl2 --enable-fontconfig --enable-gnutls --enable-iconv --enable-libass --enable-libdav1d --enable-libbluray --enable-libfreetype --enable-libmp3lame --enable-libopencore-amrnb --enable-libopencore-amrwb --enable-libopenjpeg --enable-libopus --enable-libshine --enable-libsnappy --enable-libsoxr --enable-libsrt --enable-libtheora --enable-libtwolame --enable-libvpx --enable-libwavpack --enable-libwebp --enable-libx264 --enable-libx265 --enable-libxml2 --enable-libzimg --enable-lzma --enable-zlib --enable-gmp --enable-libvidstab --enable-libvmaf --enable-libvorbis --enable-libvo-amrwbenc --enable-libmysofa --enable-libspeex --enable-libxvid --enable-libaom --enable-libgsm --enable-librav1e --disable-w32threads --enable-libmfx --enable-ffnvcodec --enable-cuda-llvm --enable-cuvid --enable-d3d11va --enable-nvenc --enable-nvdec --enable-dxva2 --enable-avisynth --enable-libopenmpt --enable-amf
  libswscale      5.  7.100 /  5.  7.100
  libpostproc    55.  7.100 / 55.  7.100
  libavutil      56. 51.100 / 56. 51.100
  libswresample   3.  7.100 /  3.  7.100
Input #0, mov,mp4,m4a,3gp,3g2,mj2, from 'input.mp4':
    major_brand     : isom
  Metadata:
    minor_version   : 512
    compatible_brands: isomiso2mp41
    encoder         : Lavf58.45.100
  Duration: 00:01:30.02, start: 0.000000, bitrate: 181885 kb/s
    Stream #0:0(und): Video: hevc (Main) (hev1 / 0x31766568), yuv420p(tv, bt709, progressive), 1920x1080 [SAR 1:1 DAR 16:9], 181884 kb/s, 29.97 fps, 29.97 tbr, 30k tbn, 29.97 tbc (default)
    Metadata:
      handler_name    : VideoHandler
Stream mapping:
  Stream #0:0 -> #0:0 (hevc (native) -> hevc (hevc_nvenc))
Press [q] to stop, [?] for help
Incompatible pixel format 'yuv420p10le' for codec 'hevc_nvenc', auto-selecting format 'p010le'
Output #0, mp4, to 'output.mp4':
  Metadata:
    compatible_brands: isomiso2mp41
      handler_name    : VideoHandler
    encoder         : Lavf58.45.100
    Stream #0:0(und): Video: hevc (hevc_nvenc) (Main 10) (hev1 / 0x31766568), p010le(tv, bt709), 1920x1080 [SAR 1:1 DAR 16:9], q=-1--1, 2000 kb/s, 29.97 fps, 30k tbn, 29.97 tbc (default)
    major_brand     : isom
      encoder         : Lavc58.91.100 hevc_nvenc
    Side data:
    Metadata:
    minor_version   : 512
      cpb: bitrate max/min/avg: 0/0/2000000 buffer size: 4000000 vbv_delay: N/A
[mp4 @ 00000290ccd2eec0] Starting second pass: moving the moov atom to the beginning of the file
frame= 2698 fps= 73 q=23.0 Lsize=   58551kB time=00:01:29.88 bitrate=5336.0kbits/s speed=2.43x    
video:58518kB audio:0kB subtitle:0kB other streams:0kB global headers:0kB muxing overhead: 0.057312%
DEBUG ExitCode: 0
DEBUG Invoke-Process
File: ffmpeg
Arg: -y -i output.mp4 -i input.mp4 -filter_complex libvmaf=vmaf_v0.6.1.pkl -an -f null -
ArgList:

ffmpeg version 4.3.1 Copyright (c) 2000-2020 the FFmpeg developers
  built with gcc 10.2.1 (GCC) 20200726
  configuration: --disable-static --enable-shared --enable-gpl --enable-version3 --enable-sdl2 --enable-fontconfig --enable-gnutls --enable-iconv --enable-libass --enable-libdav1d --enable-libbluray --enable-libfreetype --enable-libmp3lame --enable-libopencore-amrnb --enable-libopencore-amrwb --enable-libopenjpeg --enable-libopus --enable-libshine --enable-libsnappy --enable-libsoxr --enable-libsrt --enable-libtheora --enable-libtwolame --enable-libvpx --enable-libwavpack --enable-libwebp --enable-libx264 --enable-libx265 --enable-libxml2 --enable-libzimg --enable-lzma --enable-zlib --enable-gmp --enable-libvidstab --enable-libvmaf --enable-libvorbis --enable-libvo-amrwbenc --enable-libmysofa --enable-libspeex --enable-libxvid --enable-libaom --enable-libgsm --enable-librav1e --disable-w32threads --enable-libmfx --enable-ffnvcodec --enable-cuda-llvm --enable-cuvid --enable-d3d11va --enable-nvenc --enable-nvdec --enable-dxva2 --enable-avisynth --enable-libopenmpt --enable-amf
  libavutil      56. 51.100 / 56. 51.100
  libavformat    58. 45.100 / 58. 45.100
  libavdevice    58. 10.100 / 58. 10.100
  libavcodec     58. 91.100 / 58. 91.100
  libavfilter     7. 85.100 /  7. 85.100
  libswscale      5.  7.100 /  5.  7.100
  libpostproc    55.  7.100 / 55.  7.100
  libswresample   3.  7.100 /  3.  7.100
Input #0, mov,mp4,m4a,3gp,3g2,mj2, from 'output.mp4':
    minor_version   : 512
    compatible_brands: isomiso2mp41
  Metadata:
    major_brand     : isom
  Duration: 00:01:30.02, start: 0.000000, bitrate: 5328 kb/s
    encoder         : Lavf58.45.100
    Metadata:
      handler_name    : VideoHandler
    Stream #0:0(und): Video: hevc (Main 10) (hev1 / 0x31766568), yuv420p10le(tv, bt709, progressive), 1920x1080 [SAR 1:1 DAR 16:9], 5325 kb/s, 29.97 fps, 29.97 tbr, 30k tbn, 29.97 tbc (default)
Input #1, mov,mp4,m4a,3gp,3g2,mj2, from 'input.mp4':
  Metadata:
    major_brand     : isom
    minor_version   : 512
    compatible_brands: isomiso2mp41
    encoder         : Lavf58.45.100
  Duration: 00:01:30.02, start: 0.000000, bitrate: 181885 kb/s
    Stream #1:0(und): Video: hevc (Main) (hev1 / 0x31766568), yuv420p(tv, bt709, progressive), 1920x1080 [SAR 1:1 DAR 16:9], 181884 kb/s, 29.97 fps, 29.97 tbr, 30k tbn, 29.97 tbc (default)
    Metadata:
      handler_name    : VideoHandler
Stream mapping:
  Stream #0:0 (hevc) -> libvmaf:main
  Stream #1:0 (hevc) -> libvmaf:reference
  libvmaf -> Stream #0:0 (wrapped_avframe)
Press [q] to stop, [?] for help
Output #0, null, to 'pipe:':
  Metadata:
    minor_version   : 512
    encoder         : Lavf58.45.100
    major_brand     : isom
    Stream #0:0: Video: wrapped_avframe, yuv420p10le, 1920x1080 [SAR 1:1 DAR 16:9], q=2-31, 200 kb/s, 29.97 fps, 29.97 tbn, 29.97 tbc (default)
      encoder         : Lavc58.91.100 wrapped_avframe
    Metadata:
    compatible_brands: isomiso2mp41
frame=   15 fps=0.0 q=-0.0 size=N/A time=00:00:00.50 bitrate=N/A speed=0.957x    
frame=   29 fps= 28 q=-0.0 size=N/A time=00:00:00.96 bitrate=N/A speed=0.918x    
frame=   44 fps= 28 q=-0.0 size=N/A time=00:00:01.46 bitrate=N/A speed=0.93x    
frame=   57 fps= 27 q=-0.0 size=N/A time=00:00:01.90 bitrate=N/A speed=0.913x    
frame=   70 fps= 27 q=-0.0 size=N/A time=00:00:02.33 bitrate=N/A speed=0.903x    
frame=   84 fps= 27 q=-0.0 size=N/A time=00:00:02.80 bitrate=N/A speed=0.904x    
frame=   99 fps= 27 q=-0.0 size=N/A time=00:00:03.30 bitrate=N/A speed=0.898x    
frame=  112 fps= 27 q=-0.0 size=N/A time=00:00:03.73 bitrate=N/A speed=0.893x    
frame=  127 fps= 27 q=-0.0 size=N/A time=00:00:04.23 bitrate=N/A speed=0.889x    
frame=  140 fps= 26 q=-0.0 size=N/A time=00:00:04.67 bitrate=N/A speed=0.879x    
frame=  154 fps= 26 q=-0.0 size=N/A time=00:00:05.13 bitrate=N/A speed=0.883x    
frame=  168 fps= 27 q=-0.0 size=N/A time=00:00:05.60 bitrate=N/A speed=0.886x    
frame=  183 fps= 27 q=-0.0 size=N/A time=00:00:06.10 bitrate=N/A speed=0.892x    
frame=  196 fps= 27 q=-0.0 size=N/A time=00:00:06.53 bitrate=N/A speed=0.889x    
frame=  209 fps= 26 q=-0.0 size=N/A time=00:00:06.97 bitrate=N/A speed=0.882x    
frame=  224 fps= 26 q=-0.0 size=N/A time=00:00:07.47 bitrate=N/A speed=0.884x    
frame=  238 fps= 27 q=-0.0 size=N/A time=00:00:07.94 bitrate=N/A speed=0.885x    
frame=  251 fps= 26 q=-0.0 size=N/A time=00:00:08.37 bitrate=N/A speed=0.882x    
frame=  264 fps= 26 q=-0.0 size=N/A time=00:00:08.80 bitrate=N/A speed=0.879x    
frame=  278 fps= 26 q=-0.0 size=N/A time=00:00:09.27 bitrate=N/A speed=0.88x    
frame=  291 fps= 26 q=-0.0 size=N/A time=00:00:09.70 bitrate=N/A speed=0.876x    
frame=  305 fps= 26 q=-0.0 size=N/A time=00:00:10.17 bitrate=N/A speed=0.878x    
frame=  319 fps= 26 q=-0.0 size=N/A time=00:00:10.64 bitrate=N/A speed=0.879x    
frame=  332 fps= 26 q=-0.0 size=N/A time=00:00:11.07 bitrate=N/A speed=0.879x    
frame=  344 fps= 26 q=-0.0 size=N/A time=00:00:11.47 bitrate=N/A speed=0.874x    
frame=  357 fps= 26 q=-0.0 size=N/A time=00:00:11.91 bitrate=N/A speed=0.872x    
frame=  371 fps= 26 q=-0.0 size=N/A time=00:00:12.37 bitrate=N/A speed=0.874x    
frame=  384 fps= 26 q=-0.0 size=N/A time=00:00:12.81 bitrate=N/A speed=0.873x    
frame=  398 fps= 26 q=-0.0 size=N/A time=00:00:13.27 bitrate=N/A speed=0.875x    
frame=  411 fps= 26 q=-0.0 size=N/A time=00:00:13.71 bitrate=N/A speed=0.874x    
frame=  424 fps= 26 q=-0.0 size=N/A time=00:00:14.14 bitrate=N/A speed=0.872x    
frame=  437 fps= 26 q=-0.0 size=N/A time=00:00:14.58 bitrate=N/A speed=0.872x    
frame=  451 fps= 26 q=-0.0 size=N/A time=00:00:15.04 bitrate=N/A speed=0.874x    
frame=  465 fps= 26 q=-0.0 size=N/A time=00:00:15.51 bitrate=N/A speed=0.875x    
frame=  478 fps= 26 q=-0.0 size=N/A time=00:00:15.94 bitrate=N/A speed=0.874x    
frame=  491 fps= 26 q=-0.0 size=N/A time=00:00:16.38 bitrate=N/A speed=0.874x    
frame=  506 fps= 26 q=-0.0 size=N/A time=00:00:16.88 bitrate=N/A speed=0.872x    
frame=  519 fps= 26 q=-0.0 size=N/A time=00:00:17.31 bitrate=N/A speed=0.871x    
frame=  534 fps= 26 q=-0.0 size=N/A time=00:00:17.81 bitrate=N/A speed=0.873x    
frame=  547 fps= 26 q=-0.0 size=N/A time=00:00:18.25 bitrate=N/A speed=0.873x    
frame=  561 fps= 26 q=-0.0 size=N/A time=00:00:18.71 bitrate=N/A speed=0.873x    
frame=  574 fps= 26 q=-0.0 size=N/A time=00:00:19.15 bitrate=N/A speed=0.872x    
frame=  588 fps= 26 q=-0.0 size=N/A time=00:00:19.61 bitrate=N/A speed=0.873x    
frame=  602 fps= 26 q=-0.0 size=N/A time=00:00:20.08 bitrate=N/A speed=0.874x    
frame=  615 fps= 26 q=-0.0 size=N/A time=00:00:20.52 bitrate=N/A speed=0.872x    
frame=  629 fps= 26 q=-0.0 size=N/A time=00:00:20.98 bitrate=N/A speed=0.873x    
frame=  642 fps= 26 q=-0.0 size=N/A time=00:00:21.42 bitrate=N/A speed=0.87x    
frame=  656 fps= 26 q=-0.0 size=N/A time=00:00:21.88 bitrate=N/A speed=0.871x    
frame=  671 fps= 26 q=-0.0 size=N/A time=00:00:22.38 bitrate=N/A speed=0.873x    
frame=  684 fps= 26 q=-0.0 size=N/A time=00:00:22.82 bitrate=N/A speed=0.873x    
frame=  697 fps= 26 q=-0.0 size=N/A time=00:00:23.25 bitrate=N/A speed=0.872x    
frame=  710 fps= 26 q=-0.0 size=N/A time=00:00:23.69 bitrate=N/A speed=0.871x    
frame=  723 fps= 26 q=-0.0 size=N/A time=00:00:24.12 bitrate=N/A speed=0.871x    
frame=  737 fps= 26 q=-0.0 size=N/A time=00:00:24.59 bitrate=N/A speed=0.872x    
frame=  751 fps= 26 q=-0.0 size=N/A time=00:00:25.05 bitrate=N/A speed=0.872x    
frame=  765 fps= 26 q=-0.0 size=N/A time=00:00:25.52 bitrate=N/A speed=0.873x    
frame=  777 fps= 26 q=-0.0 size=N/A time=00:00:25.92 bitrate=N/A speed=0.871x    
frame=  793 fps= 26 q=-0.0 size=N/A time=00:00:26.45 bitrate=N/A speed=0.874x    
frame=  807 fps= 26 q=-0.0 size=N/A time=00:00:26.92 bitrate=N/A speed=0.874x    
frame=  821 fps= 26 q=-0.0 size=N/A time=00:00:27.39 bitrate=N/A speed=0.875x    
frame=  834 fps= 26 q=-0.0 size=N/A time=00:00:27.82 bitrate=N/A speed=0.874x    
frame=  848 fps= 26 q=-0.0 size=N/A time=00:00:28.29 bitrate=N/A speed=0.875x    
frame=  862 fps= 26 q=-0.0 size=N/A time=00:00:28.76 bitrate=N/A speed=0.875x    
frame=  876 fps= 26 q=-0.0 size=N/A time=00:00:29.22 bitrate=N/A speed=0.875x    
frame=  890 fps= 26 q=-0.0 size=N/A time=00:00:29.69 bitrate=N/A speed=0.874x    
frame=  904 fps= 26 q=-0.0 size=N/A time=00:00:30.16 bitrate=N/A speed=0.874x    
frame=  919 fps= 26 q=-0.0 size=N/A time=00:00:30.66 bitrate=N/A speed=0.875x    
frame=  934 fps= 26 q=-0.0 size=N/A time=00:00:31.16 bitrate=N/A speed=0.874x    
frame=  947 fps= 26 q=-0.0 size=N/A time=00:00:31.59 bitrate=N/A speed=0.874x    
frame=  960 fps= 26 q=-0.0 size=N/A time=00:00:32.03 bitrate=N/A speed=0.874x    
frame=  974 fps= 26 q=-0.0 size=N/A time=00:00:32.49 bitrate=N/A speed=0.874x    
frame=  988 fps= 26 q=-0.0 size=N/A time=00:00:32.96 bitrate=N/A speed=0.875x    
frame= 1002 fps= 26 q=-0.0 size=N/A time=00:00:33.43 bitrate=N/A speed=0.875x    
frame= 1016 fps= 26 q=-0.0 size=N/A time=00:00:33.90 bitrate=N/A speed=0.876x    
frame= 1029 fps= 26 q=-0.0 size=N/A time=00:00:34.33 bitrate=N/A speed=0.875x    
frame= 1042 fps= 26 q=-0.0 size=N/A time=00:00:34.76 bitrate=N/A speed=0.875x    
frame= 1056 fps= 26 q=-0.0 size=N/A time=00:00:35.23 bitrate=N/A speed=0.875x    
frame= 1071 fps= 26 q=-0.0 size=N/A time=00:00:35.73 bitrate=N/A speed=0.876x    
frame= 1085 fps= 26 q=-0.0 size=N/A time=00:00:36.20 bitrate=N/A speed=0.877x    
frame= 1098 fps= 26 q=-0.0 size=N/A time=00:00:36.63 bitrate=N/A speed=0.877x    
frame= 1111 fps= 26 q=-0.0 size=N/A time=00:00:37.07 bitrate=N/A speed=0.876x    
frame= 1125 fps= 26 q=-0.0 size=N/A time=00:00:37.53 bitrate=N/A speed=0.876x    
frame= 1139 fps= 26 q=-0.0 size=N/A time=00:00:38.00 bitrate=N/A speed=0.877x    
frame= 1152 fps= 26 q=-0.0 size=N/A time=00:00:38.43 bitrate=N/A speed=0.876x    
frame= 1167 fps= 26 q=-0.0 size=N/A time=00:00:38.93 bitrate=N/A speed=0.876x    
frame= 1182 fps= 26 q=-0.0 size=N/A time=00:00:39.43 bitrate=N/A speed=0.877x    
frame= 1197 fps= 26 q=-0.0 size=N/A time=00:00:39.93 bitrate=N/A speed=0.878x    
frame= 1209 fps= 26 q=-0.0 size=N/A time=00:00:40.34 bitrate=N/A speed=0.877x    
frame= 1223 fps= 26 q=-0.0 size=N/A time=00:00:40.80 bitrate=N/A speed=0.877x    
frame= 1236 fps= 26 q=-0.0 size=N/A time=00:00:41.24 bitrate=N/A speed=0.877x    
frame= 1251 fps= 26 q=-0.0 size=N/A time=00:00:41.74 bitrate=N/A speed=0.877x    
frame= 1264 fps= 26 q=-0.0 size=N/A time=00:00:42.17 bitrate=N/A speed=0.876x    
frame= 1278 fps= 26 q=-0.0 size=N/A time=00:00:42.64 bitrate=N/A speed=0.877x    
frame= 1291 fps= 26 q=-0.0 size=N/A time=00:00:43.07 bitrate=N/A speed=0.876x    
frame= 1304 fps= 26 q=-0.0 size=N/A time=00:00:43.51 bitrate=N/A speed=0.875x    
frame= 1317 fps= 26 q=-0.0 size=N/A time=00:00:43.94 bitrate=N/A speed=0.875x    
frame= 1331 fps= 26 q=-0.0 size=N/A time=00:00:44.41 bitrate=N/A speed=0.873x    
frame= 1345 fps= 26 q=-0.0 size=N/A time=00:00:44.87 bitrate=N/A speed=0.874x    
frame= 1358 fps= 26 q=-0.0 size=N/A time=00:00:45.31 bitrate=N/A speed=0.873x    
frame= 1370 fps= 26 q=-0.0 size=N/A time=00:00:45.71 bitrate=N/A speed=0.872x    
frame= 1383 fps= 26 q=-0.0 size=N/A time=00:00:46.14 bitrate=N/A speed=0.872x    
frame= 1397 fps= 26 q=-0.0 size=N/A time=00:00:46.61 bitrate=N/A speed=0.872x    
frame= 1411 fps= 26 q=-0.0 size=N/A time=00:00:47.08 bitrate=N/A speed=0.873x    
frame= 1424 fps= 26 q=-0.0 size=N/A time=00:00:47.51 bitrate=N/A speed=0.872x    
frame= 1437 fps= 26 q=-0.0 size=N/A time=00:00:47.94 bitrate=N/A speed=0.872x    
frame= 1448 fps= 26 q=-0.0 size=N/A time=00:00:48.31 bitrate=N/A speed=0.871x    
frame= 1461 fps= 26 q=-0.0 size=N/A time=00:00:48.74 bitrate=N/A speed=0.87x    
frame= 1476 fps= 26 q=-0.0 size=N/A time=00:00:49.24 bitrate=N/A speed=0.871x    
frame= 1487 fps= 26 q=-0.0 size=N/A time=00:00:49.61 bitrate=N/A speed=0.87x    
frame= 1501 fps= 26 q=-0.0 size=N/A time=00:00:50.08 bitrate=N/A speed=0.87x    
frame= 1515 fps= 26 q=-0.0 size=N/A time=00:00:50.55 bitrate=N/A speed=0.87x    
frame= 1529 fps= 26 q=-0.0 size=N/A time=00:00:51.01 bitrate=N/A speed=0.87x    
frame= 1542 fps= 26 q=-0.0 size=N/A time=00:00:51.45 bitrate=N/A speed=0.869x    
frame= 1556 fps= 26 q=-0.0 size=N/A time=00:00:51.91 bitrate=N/A speed=0.869x    
frame= 1568 fps= 26 q=-0.0 size=N/A time=00:00:52.31 bitrate=N/A speed=0.868x    
frame= 1580 fps= 26 q=-0.0 size=N/A time=00:00:52.71 bitrate=N/A speed=0.867x    
frame= 1594 fps= 26 q=-0.0 size=N/A time=00:00:53.18 bitrate=N/A speed=0.868x    
frame= 1607 fps= 26 q=-0.0 size=N/A time=00:00:53.62 bitrate=N/A speed=0.867x    
frame= 1620 fps= 26 q=-0.0 size=N/A time=00:00:54.05 bitrate=N/A speed=0.867x    
frame= 1633 fps= 26 q=-0.0 size=N/A time=00:00:54.48 bitrate=N/A speed=0.867x    
frame= 1647 fps= 26 q=-0.0 size=N/A time=00:00:54.95 bitrate=N/A speed=0.867x    
frame= 1659 fps= 26 q=-0.0 size=N/A time=00:00:55.35 bitrate=N/A speed=0.867x    
frame= 1670 fps= 26 q=-0.0 size=N/A time=00:00:55.72 bitrate=N/A speed=0.866x    
frame= 1681 fps= 26 q=-0.0 size=N/A time=00:00:56.08 bitrate=N/A speed=0.864x    
frame= 1693 fps= 26 q=-0.0 size=N/A time=00:00:56.48 bitrate=N/A speed=0.864x    
frame= 1706 fps= 26 q=-0.0 size=N/A time=00:00:56.92 bitrate=N/A speed=0.863x    
frame= 1718 fps= 26 q=-0.0 size=N/A time=00:00:57.32 bitrate=N/A speed=0.862x    
frame= 1732 fps= 26 q=-0.0 size=N/A time=00:00:57.79 bitrate=N/A speed=0.862x    
frame= 1745 fps= 26 q=-0.0 size=N/A time=00:00:58.22 bitrate=N/A speed=0.862x    
frame= 1759 fps= 26 q=-0.0 size=N/A time=00:00:58.69 bitrate=N/A speed=0.862x    
frame= 1773 fps= 26 q=-0.0 size=N/A time=00:00:59.15 bitrate=N/A speed=0.861x    
frame= 1787 fps= 26 q=-0.0 size=N/A time=00:00:59.62 bitrate=N/A speed=0.861x    
frame= 1800 fps= 26 q=-0.0 size=N/A time=00:01:00.06 bitrate=N/A speed=0.861x    
frame= 1814 fps= 26 q=-0.0 size=N/A time=00:01:00.52 bitrate=N/A speed=0.862x    
frame= 1828 fps= 26 q=-0.0 size=N/A time=00:01:00.99 bitrate=N/A speed=0.862x    
frame= 1841 fps= 26 q=-0.0 size=N/A time=00:01:01.42 bitrate=N/A speed=0.862x    
frame= 1855 fps= 26 q=-0.0 size=N/A time=00:01:01.89 bitrate=N/A speed=0.862x    
frame= 1869 fps= 26 q=-0.0 size=N/A time=00:01:02.36 bitrate=N/A speed=0.861x    
frame= 1883 fps= 26 q=-0.0 size=N/A time=00:01:02.82 bitrate=N/A speed=0.861x    
frame= 1897 fps= 26 q=-0.0 size=N/A time=00:01:03.29 bitrate=N/A speed=0.861x    
frame= 1911 fps= 26 q=-0.0 size=N/A time=00:01:03.76 bitrate=N/A speed=0.862x    
frame= 1925 fps= 26 q=-0.0 size=N/A time=00:01:04.23 bitrate=N/A speed=0.861x    
frame= 1939 fps= 26 q=-0.0 size=N/A time=00:01:04.69 bitrate=N/A speed=0.862x    
frame= 1953 fps= 26 q=-0.0 size=N/A time=00:01:05.16 bitrate=N/A speed=0.862x    
frame= 1966 fps= 26 q=-0.0 size=N/A time=00:01:05.59 bitrate=N/A speed=0.862x    
frame= 1979 fps= 26 q=-0.0 size=N/A time=00:01:06.03 bitrate=N/A speed=0.862x    
frame= 1992 fps= 26 q=-0.0 size=N/A time=00:01:06.46 bitrate=N/A speed=0.862x    
frame= 2005 fps= 26 q=-0.0 size=N/A time=00:01:06.90 bitrate=N/A speed=0.862x    
frame= 2020 fps= 26 q=-0.0 size=N/A time=00:01:07.40 bitrate=N/A speed=0.862x    
frame= 2033 fps= 26 q=-0.0 size=N/A time=00:01:07.83 bitrate=N/A speed=0.862x    
frame= 2046 fps= 26 q=-0.0 size=N/A time=00:01:08.26 bitrate=N/A speed=0.862x    
frame= 2059 fps= 26 q=-0.0 size=N/A time=00:01:08.70 bitrate=N/A speed=0.862x    
frame= 2074 fps= 26 q=-0.0 size=N/A time=00:01:09.20 bitrate=N/A speed=0.863x    
frame= 2088 fps= 26 q=-0.0 size=N/A time=00:01:09.66 bitrate=N/A speed=0.863x    
frame= 2099 fps= 26 q=-0.0 size=N/A time=00:01:10.03 bitrate=N/A speed=0.862x    
frame= 2113 fps= 26 q=-0.0 size=N/A time=00:01:10.50 bitrate=N/A speed=0.862x    
frame= 2127 fps= 26 q=-0.0 size=N/A time=00:01:10.97 bitrate=N/A speed=0.863x    
frame= 2140 fps= 26 q=-0.0 size=N/A time=00:01:11.40 bitrate=N/A speed=0.862x    
frame= 2153 fps= 26 q=-0.0 size=N/A time=00:01:11.83 bitrate=N/A speed=0.862x    
frame= 2167 fps= 26 q=-0.0 size=N/A time=00:01:12.30 bitrate=N/A speed=0.862x    
frame= 2180 fps= 26 q=-0.0 size=N/A time=00:01:12.73 bitrate=N/A speed=0.862x    
frame= 2194 fps= 26 q=-0.0 size=N/A time=00:01:13.20 bitrate=N/A speed=0.862x    
frame= 2208 fps= 26 q=-0.0 size=N/A time=00:01:13.67 bitrate=N/A speed=0.863x    
frame= 2222 fps= 26 q=-0.0 size=N/A time=00:01:14.14 bitrate=N/A speed=0.863x    
frame= 2236 fps= 26 q=-0.0 size=N/A time=00:01:14.60 bitrate=N/A speed=0.863x    
frame= 2249 fps= 26 q=-0.0 size=N/A time=00:01:15.04 bitrate=N/A speed=0.862x    
frame= 2264 fps= 26 q=-0.0 size=N/A time=00:01:15.54 bitrate=N/A speed=0.863x    
frame= 2277 fps= 26 q=-0.0 size=N/A time=00:01:15.97 bitrate=N/A speed=0.863x    
frame= 2290 fps= 26 q=-0.0 size=N/A time=00:01:16.40 bitrate=N/A speed=0.863x    
frame= 2303 fps= 26 q=-0.0 size=N/A time=00:01:16.84 bitrate=N/A speed=0.863x    
frame= 2318 fps= 26 q=-0.0 size=N/A time=00:01:17.34 bitrate=N/A speed=0.863x    
frame= 2334 fps= 26 q=-0.0 size=N/A time=00:01:17.87 bitrate=N/A speed=0.863x    
frame= 2347 fps= 26 q=-0.0 size=N/A time=00:01:18.31 bitrate=N/A speed=0.863x    
frame= 2361 fps= 26 q=-0.0 size=N/A time=00:01:18.77 bitrate=N/A speed=0.863x    
frame= 2374 fps= 26 q=-0.0 size=N/A time=00:01:19.21 bitrate=N/A speed=0.863x    
frame= 2388 fps= 26 q=-0.0 size=N/A time=00:01:19.67 bitrate=N/A speed=0.863x    
frame= 2401 fps= 26 q=-0.0 size=N/A time=00:01:20.11 bitrate=N/A speed=0.863x    
frame= 2413 fps= 26 q=-0.0 size=N/A time=00:01:20.51 bitrate=N/A speed=0.863x    
frame= 2427 fps= 26 q=-0.0 size=N/A time=00:01:20.98 bitrate=N/A speed=0.863x    
frame= 2441 fps= 26 q=-0.0 size=N/A time=00:01:21.44 bitrate=N/A speed=0.863x    
frame= 2454 fps= 26 q=-0.0 size=N/A time=00:01:21.88 bitrate=N/A speed=0.862x    
frame= 2469 fps= 26 q=-0.0 size=N/A time=00:01:22.38 bitrate=N/A speed=0.863x    
frame= 2483 fps= 26 q=-0.0 size=N/A time=00:01:22.84 bitrate=N/A speed=0.863x    
frame= 2495 fps= 26 q=-0.0 size=N/A time=00:01:23.24 bitrate=N/A speed=0.863x    
frame= 2507 fps= 26 q=-0.0 size=N/A time=00:01:23.65 bitrate=N/A speed=0.863x    
frame= 2522 fps= 26 q=-0.0 size=N/A time=00:01:24.15 bitrate=N/A speed=0.863x    
frame= 2536 fps= 26 q=-0.0 size=N/A time=00:01:24.61 bitrate=N/A speed=0.864x    
frame= 2549 fps= 26 q=-0.0 size=N/A time=00:01:25.05 bitrate=N/A speed=0.863x    
frame= 2562 fps= 26 q=-0.0 size=N/A time=00:01:25.48 bitrate=N/A speed=0.863x    
frame= 2576 fps= 26 q=-0.0 size=N/A time=00:01:25.95 bitrate=N/A speed=0.863x    
frame= 2590 fps= 26 q=-0.0 size=N/A time=00:01:26.41 bitrate=N/A speed=0.864x    
frame= 2603 fps= 26 q=-0.0 size=N/A time=00:01:26.85 bitrate=N/A speed=0.863x    
frame= 2616 fps= 26 q=-0.0 size=N/A time=00:01:27.28 bitrate=N/A speed=0.863x    
frame= 2630 fps= 26 q=-0.0 size=N/A time=00:01:27.75 bitrate=N/A speed=0.863x    
frame= 2644 fps= 26 q=-0.0 size=N/A time=00:01:28.22 bitrate=N/A speed=0.864x    
frame= 2659 fps= 26 q=-0.0 size=N/A time=00:01:28.72 bitrate=N/A speed=0.864x    
frame= 2673 fps= 26 q=-0.0 size=N/A time=00:01:29.18 bitrate=N/A speed=0.864x    
frame= 2688 fps= 26 q=-0.0 size=N/A time=00:01:29.68 bitrate=N/A speed=0.864x    
frame= 2698 fps= 26 q=-0.0 Lsize=N/A time=00:01:30.02 bitrate=N/A speed=0.865x    
video:1412kB audio:0kB subtitle:0kB other streams:0kB global headers:0kB muxing overhead: unknown
[libvmaf @ 000001ff6cdbb0c0] VMAF score: 96.248698
DEBUG ExitCode: 0
DEBUG Invoke-Process
File: ffmpeg
Arg: -y -nostats -analyzeduration 30M -probesize 100M -fflags +discardcorrupt -i input.mp4 -an -c:v hevc_nvenc -preset:v slow -profile:v main10 -rc:v constqp -rc-lookahead 32 -b_ref_mode 2 -init_qpI 22 -init_qpP 24 -init_qpB 25 -g 60 -bf 3 -refs 6 -pix_fmt yuv420p10le -color_range tv -color_primaries bt709 -color_trc bt709 -colorspace bt709 -movflags +faststart output.mp4
ArgList:

ffmpeg version 4.3.1 Copyright (c) 2000-2020 the FFmpeg developers
  built with gcc 10.2.1 (GCC) 20200726
  libavutil      56. 51.100 / 56. 51.100
  configuration: --disable-static --enable-shared --enable-gpl --enable-version3 --enable-sdl2 --enable-fontconfig --enable-gnutls --enable-iconv --enable-libass --enable-libdav1d --enable-libbluray --enable-libfreetype --enable-libmp3lame --enable-libopencore-amrnb --enable-libopencore-amrwb --enable-libopenjpeg --enable-libopus --enable-libshine --enable-libsnappy --enable-libsoxr --enable-libsrt --enable-libtheora --enable-libtwolame --enable-libvpx --enable-libwavpack --enable-libwebp --enable-libx264 --enable-libx265 --enable-libxml2 --enable-libzimg --enable-lzma --enable-zlib --enable-gmp --enable-libvidstab --enable-libvmaf --enable-libvorbis --enable-libvo-amrwbenc --enable-libmysofa --enable-libspeex --enable-libxvid --enable-libaom --enable-libgsm --enable-librav1e --disable-w32threads --enable-libmfx --enable-ffnvcodec --enable-cuda-llvm --enable-cuvid --enable-d3d11va --enable-nvenc --enable-nvdec --enable-dxva2 --enable-avisynth --enable-libopenmpt --enable-amf
  libavcodec     58. 91.100 / 58. 91.100
  libavformat    58. 45.100 / 58. 45.100
  libavdevice    58. 10.100 / 58. 10.100
  libavfilter     7. 85.100 /  7. 85.100
  libswscale      5.  7.100 /  5.  7.100
  libswresample   3.  7.100 /  3.  7.100
  libpostproc    55.  7.100 / 55.  7.100
Input #0, mov,mp4,m4a,3gp,3g2,mj2, from 'input.mp4':
  Metadata:
    compatible_brands: isomiso2mp41
    encoder         : Lavf58.45.100
    major_brand     : isom
  Duration: 00:01:30.02, start: 0.000000, bitrate: 181885 kb/s
    minor_version   : 512
    Stream #0:0(und): Video: hevc (Main) (hev1 / 0x31766568), yuv420p(tv, bt709, progressive), 1920x1080 [SAR 1:1 DAR 16:9], 181884 kb/s, 29.97 fps, 29.97 tbr, 30k tbn, 29.97 tbc (default)
    Metadata:
      handler_name    : VideoHandler
Stream mapping:
  Stream #0:0 -> #0:0 (hevc (native) -> hevc (hevc_nvenc))
Press [q] to stop, [?] for help
Incompatible pixel format 'yuv420p10le' for codec 'hevc_nvenc', auto-selecting format 'p010le'
Output #0, mp4, to 'output.mp4':
  Metadata:
    major_brand     : isom
    minor_version   : 512
    compatible_brands: isomiso2mp41
    encoder         : Lavf58.45.100
    Stream #0:0(und): Video: hevc (hevc_nvenc) (Main 10) (hev1 / 0x31766568), p010le(tv, bt709), 1920x1080 [SAR 1:1 DAR 16:9], q=-1--1, 2000 kb/s, 29.97 fps, 30k tbn, 29.97 tbc (default)
      cpb: bitrate max/min/avg: 0/0/2000000 buffer size: 4000000 vbv_delay: N/A
      handler_name    : VideoHandler
    Metadata:
    Side data:
      encoder         : Lavc58.91.100 hevc_nvenc
[mp4 @ 0000018d5c49eec0] Starting second pass: moving the moov atom to the beginning of the file
frame= 2698 fps= 73 q=23.0 Lsize=   58551kB time=00:01:29.88 bitrate=5336.0kbits/s speed=2.44x    
video:58518kB audio:0kB subtitle:0kB other streams:0kB global headers:0kB muxing overhead: 0.057312%
DEBUG ExitCode: 0
DEBUG Invoke-Process
File: ffmpeg
Arg: -y -i output.mp4 -i input.mp4 -filter_complex libvmaf=vmaf_v0.6.1.pkl -an -f null -
ArgList:

ffmpeg version 4.3.1 Copyright (c) 2000-2020 the FFmpeg developers
  built with gcc 10.2.1 (GCC) 20200726
  configuration: --disable-static --enable-shared --enable-gpl --enable-version3 --enable-sdl2 --enable-fontconfig --enable-gnutls --enable-iconv --enable-libass --enable-libdav1d --enable-libbluray --enable-libfreetype --enable-libmp3lame --enable-libopencore-amrnb --enable-libopencore-amrwb --enable-libopenjpeg --enable-libopus --enable-libshine --enable-libsnappy --enable-libsoxr --enable-libsrt --enable-libtheora --enable-libtwolame --enable-libvpx --enable-libwavpack --enable-libwebp --enable-libx264 --enable-libx265 --enable-libxml2 --enable-libzimg --enable-lzma --enable-zlib --enable-gmp --enable-libvidstab --enable-libvmaf --enable-libvorbis --enable-libvo-amrwbenc --enable-libmysofa --enable-libspeex --enable-libxvid --enable-libaom --enable-libgsm --enable-librav1e --disable-w32threads --enable-libmfx --enable-ffnvcodec --enable-cuda-llvm --enable-cuvid --enable-d3d11va --enable-nvenc --enable-nvdec --enable-dxva2 --enable-avisynth --enable-libopenmpt --enable-amf
  libavutil      56. 51.100 / 56. 51.100
  libavcodec     58. 91.100 / 58. 91.100
  libavformat    58. 45.100 / 58. 45.100
  libavfilter     7. 85.100 /  7. 85.100
  libswscale      5.  7.100 /  5.  7.100
  libswresample   3.  7.100 /  3.  7.100
  libpostproc    55.  7.100 / 55.  7.100
  libavdevice    58. 10.100 / 58. 10.100
Input #0, mov,mp4,m4a,3gp,3g2,mj2, from 'output.mp4':
    major_brand     : isom
  Metadata:
    minor_version   : 512
    compatible_brands: isomiso2mp41
  Duration: 00:01:30.02, start: 0.000000, bitrate: 5328 kb/s
    encoder         : Lavf58.45.100
    Stream #0:0(und): Video: hevc (Main 10) (hev1 / 0x31766568), yuv420p10le(tv, bt709, progressive), 1920x1080 [SAR 1:1 DAR 16:9], 5325 kb/s, 29.97 fps, 29.97 tbr, 30k tbn, 29.97 tbc (default)
      handler_name    : VideoHandler
    Metadata:
Input #1, mov,mp4,m4a,3gp,3g2,mj2, from 'input.mp4':
    major_brand     : isom
    minor_version   : 512
    compatible_brands: isomiso2mp41
    encoder         : Lavf58.45.100
  Metadata:
  Duration: 00:01:30.02, start: 0.000000, bitrate: 181885 kb/s
    Stream #1:0(und): Video: hevc (Main) (hev1 / 0x31766568), yuv420p(tv, bt709, progressive), 1920x1080 [SAR 1:1 DAR 16:9], 181884 kb/s, 29.97 fps, 29.97 tbr, 30k tbn, 29.97 tbc (default)
    Metadata:
      handler_name    : VideoHandler
Stream mapping:
  Stream #0:0 (hevc) -> libvmaf:main
  Stream #1:0 (hevc) -> libvmaf:reference
Press [q] to stop, [?] for help
  libvmaf -> Stream #0:0 (wrapped_avframe)
Output #0, null, to 'pipe:':
    major_brand     : isom
    minor_version   : 512
    encoder         : Lavf58.45.100
  Metadata:
    compatible_brands: isomiso2mp41
    Stream #0:0: Video: wrapped_avframe, yuv420p10le, 1920x1080 [SAR 1:1 DAR 16:9], q=2-31, 200 kb/s, 29.97 fps, 29.97 tbn, 29.97 tbc (default)
    Metadata:
      encoder         : Lavc58.91.100 wrapped_avframe
frame=   16 fps=0.0 q=-0.0 size=N/A time=00:00:00.53 bitrate=N/A speed=0.966x    
frame=   30 fps= 28 q=-0.0 size=N/A time=00:00:01.00 bitrate=N/A speed=0.929x    
frame=   44 fps= 28 q=-0.0 size=N/A time=00:00:01.46 bitrate=N/A speed=0.928x    
frame=   59 fps= 28 q=-0.0 size=N/A time=00:00:01.96 bitrate=N/A speed=0.927x    
frame=   73 fps= 27 q=-0.0 size=N/A time=00:00:02.43 bitrate=N/A speed=0.91x    
frame=   87 fps= 27 q=-0.0 size=N/A time=00:00:02.90 bitrate=N/A speed=0.911x    
frame=  101 fps= 27 q=-0.0 size=N/A time=00:00:03.37 bitrate=N/A speed=0.91x    
frame=  113 fps= 27 q=-0.0 size=N/A time=00:00:03.77 bitrate=N/A speed=0.895x    
frame=  127 fps= 27 q=-0.0 size=N/A time=00:00:04.23 bitrate=N/A speed=0.896x    
frame=  139 fps= 26 q=-0.0 size=N/A time=00:00:04.63 bitrate=N/A speed=0.882x    
frame=  153 fps= 26 q=-0.0 size=N/A time=00:00:05.10 bitrate=N/A speed=0.882x    
frame=  168 fps= 27 q=-0.0 size=N/A time=00:00:05.60 bitrate=N/A speed=0.892x    
frame=  181 fps= 27 q=-0.0 size=N/A time=00:00:06.03 bitrate=N/A speed=0.886x    
frame=  195 fps= 27 q=-0.0 size=N/A time=00:00:06.50 bitrate=N/A speed=0.888x    
frame=  208 fps= 27 q=-0.0 size=N/A time=00:00:06.94 bitrate=N/A speed=0.887x    
frame=  222 fps= 27 q=-0.0 size=N/A time=00:00:07.40 bitrate=N/A speed=0.888x    
frame=  237 fps= 27 q=-0.0 size=N/A time=00:00:07.90 bitrate=N/A speed=0.889x    
frame=  250 fps= 26 q=-0.0 size=N/A time=00:00:08.34 bitrate=N/A speed=0.882x    
frame=  264 fps= 26 q=-0.0 size=N/A time=00:00:08.80 bitrate=N/A speed=0.883x    
frame=  277 fps= 26 q=-0.0 size=N/A time=00:00:09.24 bitrate=N/A speed=0.882x    
frame=  290 fps= 26 q=-0.0 size=N/A time=00:00:09.67 bitrate=N/A speed=0.88x    
frame=  302 fps= 26 q=-0.0 size=N/A time=00:00:10.07 bitrate=N/A speed=0.876x    
frame=  317 fps= 26 q=-0.0 size=N/A time=00:00:10.57 bitrate=N/A speed=0.88x    
frame=  329 fps= 26 q=-0.0 size=N/A time=00:00:10.97 bitrate=N/A speed=0.877x    
frame=  342 fps= 26 q=-0.0 size=N/A time=00:00:11.41 bitrate=N/A speed=0.875x    
frame=  354 fps= 26 q=-0.0 size=N/A time=00:00:11.81 bitrate=N/A speed=0.872x    
frame=  367 fps= 26 q=-0.0 size=N/A time=00:00:12.24 bitrate=N/A speed=0.871x    
frame=  380 fps= 26 q=-0.0 size=N/A time=00:00:12.67 bitrate=N/A speed=0.87x    
frame=  394 fps= 26 q=-0.0 size=N/A time=00:00:13.14 bitrate=N/A speed=0.871x    
frame=  407 fps= 26 q=-0.0 size=N/A time=00:00:13.58 bitrate=N/A speed=0.871x    
frame=  422 fps= 26 q=-0.0 size=N/A time=00:00:14.08 bitrate=N/A speed=0.874x    
frame=  436 fps= 26 q=-0.0 size=N/A time=00:00:14.54 bitrate=N/A speed=0.875x    
frame=  447 fps= 26 q=-0.0 size=N/A time=00:00:14.91 bitrate=N/A speed=0.87x    
frame=  462 fps= 26 q=-0.0 size=N/A time=00:00:15.41 bitrate=N/A speed=0.873x    
frame=  475 fps= 26 q=-0.0 size=N/A time=00:00:15.84 bitrate=N/A speed=0.872x    
frame=  490 fps= 26 q=-0.0 size=N/A time=00:00:16.34 bitrate=N/A speed=0.875x    
frame=  502 fps= 26 q=-0.0 size=N/A time=00:00:16.75 bitrate=N/A speed=0.872x    
frame=  517 fps= 26 q=-0.0 size=N/A time=00:00:17.25 bitrate=N/A speed=0.874x    
frame=  530 fps= 26 q=-0.0 size=N/A time=00:00:17.68 bitrate=N/A speed=0.87x    
frame=  544 fps= 26 q=-0.0 size=N/A time=00:00:18.15 bitrate=N/A speed=0.871x    
frame=  558 fps= 26 q=-0.0 size=N/A time=00:00:18.61 bitrate=N/A speed=0.87x    
frame=  571 fps= 26 q=-0.0 size=N/A time=00:00:19.05 bitrate=N/A speed=0.87x    
frame=  586 fps= 26 q=-0.0 size=N/A time=00:00:19.55 bitrate=N/A speed=0.871x    
frame=  601 fps= 26 q=-0.0 size=N/A time=00:00:20.05 bitrate=N/A speed=0.872x    
frame=  616 fps= 26 q=-0.0 size=N/A time=00:00:20.55 bitrate=N/A speed=0.871x    
frame=  631 fps= 26 q=-0.0 size=N/A time=00:00:21.05 bitrate=N/A speed=0.871x    
frame=  645 fps= 26 q=-0.0 size=N/A time=00:00:21.52 bitrate=N/A speed=0.872x    
frame=  658 fps= 26 q=-0.0 size=N/A time=00:00:21.95 bitrate=N/A speed=0.872x    
frame=  672 fps= 26 q=-0.0 size=N/A time=00:00:22.42 bitrate=N/A speed=0.872x    
frame=  685 fps= 26 q=-0.0 size=N/A time=00:00:22.85 bitrate=N/A speed=0.871x    
frame=  698 fps= 26 q=-0.0 size=N/A time=00:00:23.28 bitrate=N/A speed=0.871x    
frame=  712 fps= 26 q=-0.0 size=N/A time=00:00:23.75 bitrate=N/A speed=0.871x    
frame=  725 fps= 26 q=-0.0 size=N/A time=00:00:24.19 bitrate=N/A speed=0.871x    
frame=  737 fps= 26 q=-0.0 size=N/A time=00:00:24.59 bitrate=N/A speed=0.87x    
frame=  753 fps= 26 q=-0.0 size=N/A time=00:00:25.12 bitrate=N/A speed=0.872x    
frame=  767 fps= 26 q=-0.0 size=N/A time=00:00:25.59 bitrate=N/A speed=0.873x    
frame=  781 fps= 26 q=-0.0 size=N/A time=00:00:26.05 bitrate=N/A speed=0.873x    
frame=  796 fps= 26 q=-0.0 size=N/A time=00:00:26.55 bitrate=N/A speed=0.874x    
frame=  808 fps= 26 q=-0.0 size=N/A time=00:00:26.96 bitrate=N/A speed=0.872x    
frame=  822 fps= 26 q=-0.0 size=N/A time=00:00:27.42 bitrate=N/A speed=0.873x    
frame=  835 fps= 26 q=-0.0 size=N/A time=00:00:27.86 bitrate=N/A speed=0.872x    
frame=  849 fps= 26 q=-0.0 size=N/A time=00:00:28.32 bitrate=N/A speed=0.873x    
frame=  862 fps= 26 q=-0.0 size=N/A time=00:00:28.76 bitrate=N/A speed=0.873x    
frame=  877 fps= 26 q=-0.0 size=N/A time=00:00:29.26 bitrate=N/A speed=0.874x    
frame=  889 fps= 26 q=-0.0 size=N/A time=00:00:29.66 bitrate=N/A speed=0.872x    
frame=  904 fps= 26 q=-0.0 size=N/A time=00:00:30.16 bitrate=N/A speed=0.873x    
frame=  918 fps= 26 q=-0.0 size=N/A time=00:00:30.63 bitrate=N/A speed=0.873x    
frame=  932 fps= 26 q=-0.0 size=N/A time=00:00:31.09 bitrate=N/A speed=0.873x    
frame=  946 fps= 26 q=-0.0 size=N/A time=00:00:31.56 bitrate=N/A speed=0.873x    
frame=  958 fps= 26 q=-0.0 size=N/A time=00:00:31.96 bitrate=N/A speed=0.872x    
frame=  973 fps= 26 q=-0.0 size=N/A time=00:00:32.46 bitrate=N/A speed=0.874x    
frame=  986 fps= 26 q=-0.0 size=N/A time=00:00:32.89 bitrate=N/A speed=0.873x    
frame=  999 fps= 26 q=-0.0 size=N/A time=00:00:33.33 bitrate=N/A speed=0.872x    
frame= 1012 fps= 26 q=-0.0 size=N/A time=00:00:33.76 bitrate=N/A speed=0.872x    
frame= 1025 fps= 26 q=-0.0 size=N/A time=00:00:34.20 bitrate=N/A speed=0.872x    
frame= 1040 fps= 26 q=-0.0 size=N/A time=00:00:34.70 bitrate=N/A speed=0.872x    
frame= 1055 fps= 26 q=-0.0 size=N/A time=00:00:35.20 bitrate=N/A speed=0.874x    
frame= 1067 fps= 26 q=-0.0 size=N/A time=00:00:35.60 bitrate=N/A speed=0.873x    
frame= 1080 fps= 26 q=-0.0 size=N/A time=00:00:36.03 bitrate=N/A speed=0.872x    
frame= 1094 fps= 26 q=-0.0 size=N/A time=00:00:36.50 bitrate=N/A speed=0.872x    
frame= 1108 fps= 26 q=-0.0 size=N/A time=00:00:36.97 bitrate=N/A speed=0.872x    
frame= 1122 fps= 26 q=-0.0 size=N/A time=00:00:37.43 bitrate=N/A speed=0.873x    
frame= 1137 fps= 26 q=-0.0 size=N/A time=00:00:37.93 bitrate=N/A speed=0.874x    
frame= 1150 fps= 26 q=-0.0 size=N/A time=00:00:38.37 bitrate=N/A speed=0.874x    
frame= 1163 fps= 26 q=-0.0 size=N/A time=00:00:38.80 bitrate=N/A speed=0.874x    
frame= 1177 fps= 26 q=-0.0 size=N/A time=00:00:39.27 bitrate=N/A speed=0.874x    
frame= 1189 fps= 26 q=-0.0 size=N/A time=00:00:39.67 bitrate=N/A speed=0.873x    
frame= 1203 fps= 26 q=-0.0 size=N/A time=00:00:40.14 bitrate=N/A speed=0.874x    
frame= 1217 fps= 26 q=-0.0 size=N/A time=00:00:40.60 bitrate=N/A speed=0.874x    
frame= 1230 fps= 26 q=-0.0 size=N/A time=00:00:41.04 bitrate=N/A speed=0.873x    
frame= 1245 fps= 26 q=-0.0 size=N/A time=00:00:41.54 bitrate=N/A speed=0.873x    
frame= 1259 fps= 26 q=-0.0 size=N/A time=00:00:42.00 bitrate=N/A speed=0.873x    
frame= 1273 fps= 26 q=-0.0 size=N/A time=00:00:42.47 bitrate=N/A speed=0.872x    
frame= 1287 fps= 26 q=-0.0 size=N/A time=00:00:42.94 bitrate=N/A speed=0.873x    
frame= 1301 fps= 26 q=-0.0 size=N/A time=00:00:43.41 bitrate=N/A speed=0.873x    
frame= 1314 fps= 26 q=-0.0 size=N/A time=00:00:43.84 bitrate=N/A speed=0.872x    
frame= 1327 fps= 26 q=-0.0 size=N/A time=00:00:44.27 bitrate=N/A speed=0.872x    
frame= 1340 fps= 26 q=-0.0 size=N/A time=00:00:44.71 bitrate=N/A speed=0.871x    
frame= 1353 fps= 26 q=-0.0 size=N/A time=00:00:45.14 bitrate=N/A speed=0.87x    
frame= 1367 fps= 26 q=-0.0 size=N/A time=00:00:45.61 bitrate=N/A speed=0.871x    
frame= 1381 fps= 26 q=-0.0 size=N/A time=00:00:46.07 bitrate=N/A speed=0.871x    
frame= 1395 fps= 26 q=-0.0 size=N/A time=00:00:46.54 bitrate=N/A speed=0.871x    
frame= 1409 fps= 26 q=-0.0 size=N/A time=00:00:47.01 bitrate=N/A speed=0.872x    
frame= 1422 fps= 26 q=-0.0 size=N/A time=00:00:47.44 bitrate=N/A speed=0.871x    
frame= 1436 fps= 26 q=-0.0 size=N/A time=00:00:47.91 bitrate=N/A speed=0.872x    
frame= 1449 fps= 26 q=-0.0 size=N/A time=00:00:48.34 bitrate=N/A speed=0.871x    
frame= 1463 fps= 26 q=-0.0 size=N/A time=00:00:48.81 bitrate=N/A speed=0.872x    
frame= 1476 fps= 26 q=-0.0 size=N/A time=00:00:49.24 bitrate=N/A speed=0.872x    
frame= 1490 fps= 26 q=-0.0 size=N/A time=00:00:49.71 bitrate=N/A speed=0.872x    
frame= 1504 fps= 26 q=-0.0 size=N/A time=00:00:50.18 bitrate=N/A speed=0.872x    
frame= 1517 fps= 26 q=-0.0 size=N/A time=00:00:50.61 bitrate=N/A speed=0.871x    
frame= 1531 fps= 26 q=-0.0 size=N/A time=00:00:51.08 bitrate=N/A speed=0.872x    
frame= 1544 fps= 26 q=-0.0 size=N/A time=00:00:51.51 bitrate=N/A speed=0.871x    
frame= 1559 fps= 26 q=-0.0 size=N/A time=00:00:52.01 bitrate=N/A speed=0.871x    
frame= 1571 fps= 26 q=-0.0 size=N/A time=00:00:52.41 bitrate=N/A speed=0.87x    
frame= 1585 fps= 26 q=-0.0 size=N/A time=00:00:52.88 bitrate=N/A speed=0.87x    
frame= 1597 fps= 26 q=-0.0 size=N/A time=00:00:53.28 bitrate=N/A speed=0.87x    
frame= 1611 fps= 26 q=-0.0 size=N/A time=00:00:53.75 bitrate=N/A speed=0.87x    
frame= 1625 fps= 26 q=-0.0 size=N/A time=00:00:54.22 bitrate=N/A speed=0.871x    
frame= 1639 fps= 26 q=-0.0 size=N/A time=00:00:54.68 bitrate=N/A speed=0.871x    
frame= 1653 fps= 26 q=-0.0 size=N/A time=00:00:55.15 bitrate=N/A speed=0.871x    
frame= 1666 fps= 26 q=-0.0 size=N/A time=00:00:55.58 bitrate=N/A speed=0.87x    
frame= 1681 fps= 26 q=-0.0 size=N/A time=00:00:56.08 bitrate=N/A speed=0.87x    
frame= 1695 fps= 26 q=-0.0 size=N/A time=00:00:56.55 bitrate=N/A speed=0.871x    
frame= 1706 fps= 26 q=-0.0 size=N/A time=00:00:56.92 bitrate=N/A speed=0.869x    
frame= 1720 fps= 26 q=-0.0 size=N/A time=00:00:57.39 bitrate=N/A speed=0.869x    
frame= 1734 fps= 26 q=-0.0 size=N/A time=00:00:57.85 bitrate=N/A speed=0.87x    
frame= 1747 fps= 26 q=-0.0 size=N/A time=00:00:58.29 bitrate=N/A speed=0.87x    
frame= 1760 fps= 26 q=-0.0 size=N/A time=00:00:58.72 bitrate=N/A speed=0.869x    
frame= 1775 fps= 26 q=-0.0 size=N/A time=00:00:59.22 bitrate=N/A speed=0.87x    
frame= 1787 fps= 26 q=-0.0 size=N/A time=00:00:59.62 bitrate=N/A speed=0.869x    
frame= 1800 fps= 26 q=-0.0 size=N/A time=00:01:00.06 bitrate=N/A speed=0.869x    
frame= 1813 fps= 26 q=-0.0 size=N/A time=00:01:00.49 bitrate=N/A speed=0.869x    
frame= 1826 fps= 26 q=-0.0 size=N/A time=00:01:00.92 bitrate=N/A speed=0.869x    
frame= 1841 fps= 26 q=-0.0 size=N/A time=00:01:01.42 bitrate=N/A speed=0.869x    
frame= 1854 fps= 26 q=-0.0 size=N/A time=00:01:01.86 bitrate=N/A speed=0.869x    
frame= 1867 fps= 26 q=-0.0 size=N/A time=00:01:02.29 bitrate=N/A speed=0.868x    
frame= 1880 fps= 26 q=-0.0 size=N/A time=00:01:02.72 bitrate=N/A speed=0.868x    
frame= 1894 fps= 26 q=-0.0 size=N/A time=00:01:03.19 bitrate=N/A speed=0.868x    
frame= 1909 fps= 26 q=-0.0 size=N/A time=00:01:03.69 bitrate=N/A speed=0.869x    
frame= 1922 fps= 26 q=-0.0 size=N/A time=00:01:04.13 bitrate=N/A speed=0.869x    
frame= 1936 fps= 26 q=-0.0 size=N/A time=00:01:04.59 bitrate=N/A speed=0.869x    
frame= 1948 fps= 26 q=-0.0 size=N/A time=00:01:04.99 bitrate=N/A speed=0.869x    
frame= 1962 fps= 26 q=-0.0 size=N/A time=00:01:05.46 bitrate=N/A speed=0.869x    
frame= 1975 fps= 26 q=-0.0 size=N/A time=00:01:05.89 bitrate=N/A speed=0.869x    
frame= 1990 fps= 26 q=-0.0 size=N/A time=00:01:06.39 bitrate=N/A speed=0.869x    
frame= 2003 fps= 26 q=-0.0 size=N/A time=00:01:06.83 bitrate=N/A speed=0.869x    
frame= 2016 fps= 26 q=-0.0 size=N/A time=00:01:07.26 bitrate=N/A speed=0.869x    
frame= 2029 fps= 26 q=-0.0 size=N/A time=00:01:07.70 bitrate=N/A speed=0.869x    
frame= 2043 fps= 26 q=-0.0 size=N/A time=00:01:08.16 bitrate=N/A speed=0.869x    
frame= 2057 fps= 26 q=-0.0 size=N/A time=00:01:08.63 bitrate=N/A speed=0.869x    
frame= 2071 fps= 26 q=-0.0 size=N/A time=00:01:09.10 bitrate=N/A speed=0.869x    
frame= 2085 fps= 26 q=-0.0 size=N/A time=00:01:09.56 bitrate=N/A speed=0.869x    
frame= 2098 fps= 26 q=-0.0 size=N/A time=00:01:10.00 bitrate=N/A speed=0.869x    
frame= 2112 fps= 26 q=-0.0 size=N/A time=00:01:10.47 bitrate=N/A speed=0.869x    
frame= 2126 fps= 26 q=-0.0 size=N/A time=00:01:10.93 bitrate=N/A speed=0.869x    
frame= 2140 fps= 26 q=-0.0 size=N/A time=00:01:11.40 bitrate=N/A speed=0.869x    
frame= 2155 fps= 26 q=-0.0 size=N/A time=00:01:11.90 bitrate=N/A speed=0.869x    
frame= 2170 fps= 26 q=-0.0 size=N/A time=00:01:12.40 bitrate=N/A speed=0.869x    
frame= 2184 fps= 26 q=-0.0 size=N/A time=00:01:12.87 bitrate=N/A speed=0.869x    
frame= 2197 fps= 26 q=-0.0 size=N/A time=00:01:13.30 bitrate=N/A speed=0.869x    
frame= 2210 fps= 26 q=-0.0 size=N/A time=00:01:13.74 bitrate=N/A speed=0.869x    
frame= 2225 fps= 26 q=-0.0 size=N/A time=00:01:14.24 bitrate=N/A speed=0.87x    
frame= 2238 fps= 26 q=-0.0 size=N/A time=00:01:14.67 bitrate=N/A speed=0.869x    
frame= 2252 fps= 26 q=-0.0 size=N/A time=00:01:15.14 bitrate=N/A speed=0.87x    
frame= 2264 fps= 26 q=-0.0 size=N/A time=00:01:15.54 bitrate=N/A speed=0.869x    
frame= 2277 fps= 26 q=-0.0 size=N/A time=00:01:15.97 bitrate=N/A speed=0.869x    
frame= 2289 fps= 26 q=-0.0 size=N/A time=00:01:16.37 bitrate=N/A speed=0.869x    
frame= 2304 fps= 26 q=-0.0 size=N/A time=00:01:16.87 bitrate=N/A speed=0.869x    
frame= 2318 fps= 26 q=-0.0 size=N/A time=00:01:17.34 bitrate=N/A speed=0.869x    
frame= 2332 fps= 26 q=-0.0 size=N/A time=00:01:17.81 bitrate=N/A speed=0.869x    
frame= 2346 fps= 26 q=-0.0 size=N/A time=00:01:18.27 bitrate=N/A speed=0.87x    
frame= 2358 fps= 26 q=-0.0 size=N/A time=00:01:18.67 bitrate=N/A speed=0.869x    
frame= 2372 fps= 26 q=-0.0 size=N/A time=00:01:19.14 bitrate=N/A speed=0.869x    
frame= 2385 fps= 26 q=-0.0 size=N/A time=00:01:19.57 bitrate=N/A speed=0.869x    
frame= 2398 fps= 26 q=-0.0 size=N/A time=00:01:20.01 bitrate=N/A speed=0.869x    
frame= 2411 fps= 26 q=-0.0 size=N/A time=00:01:20.44 bitrate=N/A speed=0.869x    
frame= 2426 fps= 26 q=-0.0 size=N/A time=00:01:20.94 bitrate=N/A speed=0.869x    
frame= 2439 fps= 26 q=-0.0 size=N/A time=00:01:21.38 bitrate=N/A speed=0.869x    
frame= 2451 fps= 26 q=-0.0 size=N/A time=00:01:21.78 bitrate=N/A speed=0.869x    
frame= 2466 fps= 26 q=-0.0 size=N/A time=00:01:22.28 bitrate=N/A speed=0.869x    
frame= 2480 fps= 26 q=-0.0 size=N/A time=00:01:22.74 bitrate=N/A speed=0.869x    
frame= 2493 fps= 26 q=-0.0 size=N/A time=00:01:23.18 bitrate=N/A speed=0.869x    
frame= 2506 fps= 26 q=-0.0 size=N/A time=00:01:23.61 bitrate=N/A speed=0.869x    
frame= 2520 fps= 26 q=-0.0 size=N/A time=00:01:24.08 bitrate=N/A speed=0.869x    
frame= 2533 fps= 26 q=-0.0 size=N/A time=00:01:24.51 bitrate=N/A speed=0.868x    
frame= 2547 fps= 26 q=-0.0 size=N/A time=00:01:24.98 bitrate=N/A speed=0.869x    
frame= 2560 fps= 26 q=-0.0 size=N/A time=00:01:25.41 bitrate=N/A speed=0.869x    
frame= 2573 fps= 26 q=-0.0 size=N/A time=00:01:25.85 bitrate=N/A speed=0.868x    
frame= 2586 fps= 26 q=-0.0 size=N/A time=00:01:26.28 bitrate=N/A speed=0.868x    
frame= 2601 fps= 26 q=-0.0 size=N/A time=00:01:26.78 bitrate=N/A speed=0.869x    
frame= 2614 fps= 26 q=-0.0 size=N/A time=00:01:27.22 bitrate=N/A speed=0.869x    
frame= 2627 fps= 26 q=-0.0 size=N/A time=00:01:27.65 bitrate=N/A speed=0.869x    
frame= 2641 fps= 26 q=-0.0 size=N/A time=00:01:28.12 bitrate=N/A speed=0.869x    
frame= 2654 fps= 26 q=-0.0 size=N/A time=00:01:28.55 bitrate=N/A speed=0.869x    
frame= 2667 fps= 26 q=-0.0 size=N/A time=00:01:28.98 bitrate=N/A speed=0.869x    
frame= 2682 fps= 26 q=-0.0 size=N/A time=00:01:29.48 bitrate=N/A speed=0.869x    
frame= 2697 fps= 26 q=-0.0 size=N/A time=00:01:29.98 bitrate=N/A speed=0.87x    
frame= 2698 fps= 26 q=-0.0 Lsize=N/A time=00:01:30.02 bitrate=N/A speed=0.87x    
video:1412kB audio:0kB subtitle:0kB other streams:0kB global headers:0kB muxing overhead: unknown
[libvmaf @ 00000252644beb00] VMAF score: 96.248698
DEBUG ExitCode: 0
**********************
PowerShell transcript end
End time: 20200807155641
**********************
